<mxfile host="app.diagrams.net" modified="2021-03-03T11:51:34.647Z" agent="5.0 (Windows NT 10.0; Win64; x64) AppleWebKit/537.36 (KHTML, like Gecko) Chrome/88.0.4324.190 Safari/537.36" etag="8LwFkNEgO_sA0hKkfqVc" version="14.4.3" type="github">
  <diagram id="y2QwmrCyLm0R8bWFZ2Ct" name="第 1 页">
    <mxGraphModel dx="1038" dy="548" grid="1" gridSize="10" guides="1" tooltips="1" connect="1" arrows="1" fold="1" page="1" pageScale="1" pageWidth="1169" pageHeight="827" math="0" shadow="0">
      <root>
        <mxCell id="0" />
        <mxCell id="1" parent="0" />
        <mxCell id="d2iDbv8LphyQNJaGy7Gl-5" style="rounded=0;orthogonalLoop=1;jettySize=auto;html=1;exitX=1;exitY=0.5;exitDx=0;exitDy=0;entryX=0;entryY=0.5;entryDx=0;entryDy=0;strokeWidth=1;" edge="1" parent="1" source="d2iDbv8LphyQNJaGy7Gl-1" target="d2iDbv8LphyQNJaGy7Gl-2">
          <mxGeometry relative="1" as="geometry" />
        </mxCell>
        <mxCell id="d2iDbv8LphyQNJaGy7Gl-6" style="edgeStyle=none;rounded=0;orthogonalLoop=1;jettySize=auto;html=1;exitX=1;exitY=0.5;exitDx=0;exitDy=0;entryX=0;entryY=0.5;entryDx=0;entryDy=0;strokeWidth=1;" edge="1" parent="1" source="d2iDbv8LphyQNJaGy7Gl-1" target="d2iDbv8LphyQNJaGy7Gl-3">
          <mxGeometry relative="1" as="geometry" />
        </mxCell>
        <mxCell id="d2iDbv8LphyQNJaGy7Gl-7" style="edgeStyle=none;rounded=0;orthogonalLoop=1;jettySize=auto;html=1;exitX=1;exitY=0.5;exitDx=0;exitDy=0;entryX=0;entryY=0.5;entryDx=0;entryDy=0;strokeWidth=1;" edge="1" parent="1" source="d2iDbv8LphyQNJaGy7Gl-1" target="d2iDbv8LphyQNJaGy7Gl-4">
          <mxGeometry relative="1" as="geometry" />
        </mxCell>
        <mxCell id="d2iDbv8LphyQNJaGy7Gl-1" value="" style="whiteSpace=wrap;html=1;aspect=fixed;rounded=0;fontSize=11;strokeWidth=1;labelBackgroundColor=#ffffff;endArrow=classic;" vertex="1" parent="1">
          <mxGeometry x="130" y="200" width="80" height="80" as="geometry" />
        </mxCell>
        <mxCell id="d2iDbv8LphyQNJaGy7Gl-11" style="edgeStyle=none;rounded=0;orthogonalLoop=1;jettySize=auto;html=1;exitX=1;exitY=0.5;exitDx=0;exitDy=0;entryX=0;entryY=0.5;entryDx=0;entryDy=0;strokeWidth=1;" edge="1" parent="1" source="d2iDbv8LphyQNJaGy7Gl-2" target="d2iDbv8LphyQNJaGy7Gl-8">
          <mxGeometry relative="1" as="geometry" />
        </mxCell>
        <mxCell id="d2iDbv8LphyQNJaGy7Gl-2" value="" style="whiteSpace=wrap;html=1;aspect=fixed;rounded=0;fontSize=11;strokeWidth=1;labelBackgroundColor=#ffffff;endArrow=classic;" vertex="1" parent="1">
          <mxGeometry x="300" y="80" width="80" height="80" as="geometry" />
        </mxCell>
        <mxCell id="d2iDbv8LphyQNJaGy7Gl-12" style="edgeStyle=none;rounded=0;orthogonalLoop=1;jettySize=auto;html=1;exitX=1;exitY=0.5;exitDx=0;exitDy=0;entryX=0;entryY=0.5;entryDx=0;entryDy=0;strokeWidth=1;" edge="1" parent="1" source="d2iDbv8LphyQNJaGy7Gl-3" target="d2iDbv8LphyQNJaGy7Gl-9">
          <mxGeometry relative="1" as="geometry" />
        </mxCell>
        <mxCell id="d2iDbv8LphyQNJaGy7Gl-3" value="" style="whiteSpace=wrap;html=1;aspect=fixed;rounded=0;fontSize=11;strokeWidth=1;labelBackgroundColor=#ffffff;endArrow=classic;" vertex="1" parent="1">
          <mxGeometry x="300" y="200" width="80" height="80" as="geometry" />
        </mxCell>
        <mxCell id="d2iDbv8LphyQNJaGy7Gl-13" style="edgeStyle=none;rounded=0;orthogonalLoop=1;jettySize=auto;html=1;exitX=1;exitY=0.5;exitDx=0;exitDy=0;entryX=0;entryY=0.5;entryDx=0;entryDy=0;strokeWidth=1;" edge="1" parent="1" source="d2iDbv8LphyQNJaGy7Gl-4" target="d2iDbv8LphyQNJaGy7Gl-10">
          <mxGeometry relative="1" as="geometry" />
        </mxCell>
        <mxCell id="d2iDbv8LphyQNJaGy7Gl-4" value="" style="whiteSpace=wrap;html=1;aspect=fixed;rounded=0;fontSize=11;strokeWidth=1;labelBackgroundColor=#ffffff;endArrow=classic;" vertex="1" parent="1">
          <mxGeometry x="300" y="320" width="80" height="80" as="geometry" />
        </mxCell>
        <mxCell id="d2iDbv8LphyQNJaGy7Gl-41" style="edgeStyle=none;rounded=0;orthogonalLoop=1;jettySize=auto;html=1;exitX=1;exitY=0.5;exitDx=0;exitDy=0;entryX=0;entryY=0.5;entryDx=0;entryDy=0;strokeWidth=1;" edge="1" parent="1" source="d2iDbv8LphyQNJaGy7Gl-8" target="d2iDbv8LphyQNJaGy7Gl-15">
          <mxGeometry relative="1" as="geometry" />
        </mxCell>
        <mxCell id="d2iDbv8LphyQNJaGy7Gl-42" style="edgeStyle=none;rounded=0;orthogonalLoop=1;jettySize=auto;html=1;exitX=1;exitY=0.5;exitDx=0;exitDy=0;entryX=0;entryY=0.5;entryDx=0;entryDy=0;strokeWidth=1;" edge="1" parent="1" source="d2iDbv8LphyQNJaGy7Gl-8" target="d2iDbv8LphyQNJaGy7Gl-18">
          <mxGeometry relative="1" as="geometry" />
        </mxCell>
        <mxCell id="d2iDbv8LphyQNJaGy7Gl-43" style="edgeStyle=none;rounded=0;orthogonalLoop=1;jettySize=auto;html=1;exitX=1;exitY=0.5;exitDx=0;exitDy=0;entryX=0;entryY=0.5;entryDx=0;entryDy=0;strokeWidth=1;" edge="1" parent="1" source="d2iDbv8LphyQNJaGy7Gl-8" target="d2iDbv8LphyQNJaGy7Gl-19">
          <mxGeometry relative="1" as="geometry" />
        </mxCell>
        <mxCell id="d2iDbv8LphyQNJaGy7Gl-44" style="edgeStyle=none;rounded=0;orthogonalLoop=1;jettySize=auto;html=1;exitX=1;exitY=0.5;exitDx=0;exitDy=0;entryX=0;entryY=0.5;entryDx=0;entryDy=0;strokeWidth=1;" edge="1" parent="1" source="d2iDbv8LphyQNJaGy7Gl-8" target="d2iDbv8LphyQNJaGy7Gl-22">
          <mxGeometry relative="1" as="geometry" />
        </mxCell>
        <mxCell id="d2iDbv8LphyQNJaGy7Gl-8" value="" style="whiteSpace=wrap;html=1;aspect=fixed;rounded=0;fontSize=11;strokeWidth=1;labelBackgroundColor=#ffffff;endArrow=classic;" vertex="1" parent="1">
          <mxGeometry x="440" y="85" width="70" height="70" as="geometry" />
        </mxCell>
        <mxCell id="d2iDbv8LphyQNJaGy7Gl-54" style="edgeStyle=none;rounded=0;orthogonalLoop=1;jettySize=auto;html=1;exitX=1;exitY=0.5;exitDx=0;exitDy=0;entryX=0;entryY=0.5;entryDx=0;entryDy=0;strokeWidth=1;" edge="1" parent="1" source="d2iDbv8LphyQNJaGy7Gl-9" target="d2iDbv8LphyQNJaGy7Gl-18">
          <mxGeometry relative="1" as="geometry" />
        </mxCell>
        <mxCell id="d2iDbv8LphyQNJaGy7Gl-56" style="edgeStyle=none;rounded=0;orthogonalLoop=1;jettySize=auto;html=1;exitX=1;exitY=0.5;exitDx=0;exitDy=0;strokeWidth=1;" edge="1" parent="1" source="d2iDbv8LphyQNJaGy7Gl-9">
          <mxGeometry relative="1" as="geometry">
            <mxPoint x="570" y="110" as="targetPoint" />
          </mxGeometry>
        </mxCell>
        <mxCell id="d2iDbv8LphyQNJaGy7Gl-57" style="edgeStyle=none;rounded=0;orthogonalLoop=1;jettySize=auto;html=1;exitX=1;exitY=0.5;exitDx=0;exitDy=0;entryX=0;entryY=0.5;entryDx=0;entryDy=0;strokeWidth=1;" edge="1" parent="1" source="d2iDbv8LphyQNJaGy7Gl-9" target="d2iDbv8LphyQNJaGy7Gl-22">
          <mxGeometry relative="1" as="geometry" />
        </mxCell>
        <mxCell id="d2iDbv8LphyQNJaGy7Gl-58" style="edgeStyle=none;rounded=0;orthogonalLoop=1;jettySize=auto;html=1;exitX=1;exitY=0.5;exitDx=0;exitDy=0;entryX=0;entryY=0.5;entryDx=0;entryDy=0;strokeWidth=1;" edge="1" parent="1" source="d2iDbv8LphyQNJaGy7Gl-9" target="d2iDbv8LphyQNJaGy7Gl-19">
          <mxGeometry relative="1" as="geometry" />
        </mxCell>
        <mxCell id="d2iDbv8LphyQNJaGy7Gl-9" value="" style="whiteSpace=wrap;html=1;aspect=fixed;rounded=0;fontSize=11;strokeWidth=1;labelBackgroundColor=#ffffff;endArrow=classic;" vertex="1" parent="1">
          <mxGeometry x="440" y="205" width="70" height="70" as="geometry" />
        </mxCell>
        <mxCell id="d2iDbv8LphyQNJaGy7Gl-50" style="edgeStyle=none;rounded=0;orthogonalLoop=1;jettySize=auto;html=1;exitX=1;exitY=0.5;exitDx=0;exitDy=0;strokeWidth=1;" edge="1" parent="1" source="d2iDbv8LphyQNJaGy7Gl-10" target="d2iDbv8LphyQNJaGy7Gl-22">
          <mxGeometry relative="1" as="geometry" />
        </mxCell>
        <mxCell id="d2iDbv8LphyQNJaGy7Gl-51" style="edgeStyle=none;rounded=0;orthogonalLoop=1;jettySize=auto;html=1;exitX=1;exitY=0.5;exitDx=0;exitDy=0;entryX=0;entryY=0.5;entryDx=0;entryDy=0;strokeWidth=1;" edge="1" parent="1" source="d2iDbv8LphyQNJaGy7Gl-10" target="d2iDbv8LphyQNJaGy7Gl-19">
          <mxGeometry relative="1" as="geometry" />
        </mxCell>
        <mxCell id="d2iDbv8LphyQNJaGy7Gl-52" style="edgeStyle=none;rounded=0;orthogonalLoop=1;jettySize=auto;html=1;exitX=1;exitY=0.5;exitDx=0;exitDy=0;entryX=0;entryY=0.5;entryDx=0;entryDy=0;strokeWidth=1;" edge="1" parent="1" source="d2iDbv8LphyQNJaGy7Gl-10" target="d2iDbv8LphyQNJaGy7Gl-18">
          <mxGeometry relative="1" as="geometry" />
        </mxCell>
        <mxCell id="d2iDbv8LphyQNJaGy7Gl-53" style="edgeStyle=none;rounded=0;orthogonalLoop=1;jettySize=auto;html=1;exitX=1;exitY=0.5;exitDx=0;exitDy=0;entryX=0;entryY=0.5;entryDx=0;entryDy=0;strokeWidth=1;" edge="1" parent="1" source="d2iDbv8LphyQNJaGy7Gl-10" target="d2iDbv8LphyQNJaGy7Gl-15">
          <mxGeometry relative="1" as="geometry" />
        </mxCell>
        <mxCell id="d2iDbv8LphyQNJaGy7Gl-10" value="" style="whiteSpace=wrap;html=1;aspect=fixed;rounded=0;fontSize=11;strokeWidth=1;labelBackgroundColor=#ffffff;endArrow=classic;" vertex="1" parent="1">
          <mxGeometry x="440" y="325" width="70" height="70" as="geometry" />
        </mxCell>
        <mxCell id="d2iDbv8LphyQNJaGy7Gl-67" style="edgeStyle=none;rounded=0;orthogonalLoop=1;jettySize=auto;html=1;exitX=1;exitY=0.5;exitDx=0;exitDy=0;strokeWidth=1;" edge="1" parent="1" source="d2iDbv8LphyQNJaGy7Gl-19">
          <mxGeometry relative="1" as="geometry">
            <mxPoint x="690" y="170" as="targetPoint" />
          </mxGeometry>
        </mxCell>
        <mxCell id="d2iDbv8LphyQNJaGy7Gl-65" style="edgeStyle=none;rounded=0;orthogonalLoop=1;jettySize=auto;html=1;exitX=1;exitY=0.5;exitDx=0;exitDy=0;entryX=0;entryY=0.5;entryDx=0;entryDy=0;strokeWidth=1;" edge="1" parent="1" source="d2iDbv8LphyQNJaGy7Gl-15" target="d2iDbv8LphyQNJaGy7Gl-64">
          <mxGeometry x="570" y="76" as="geometry" />
        </mxCell>
        <mxCell id="d2iDbv8LphyQNJaGy7Gl-15" value="" style="ellipse;whiteSpace=wrap;html=1;aspect=fixed;strokeWidth=1;" vertex="1" parent="1">
          <mxGeometry x="570" y="76" width="60.65498097436218" height="60.65498097436218" as="geometry" />
        </mxCell>
        <mxCell id="d2iDbv8LphyQNJaGy7Gl-17" style="rounded=0;orthogonalLoop=1;jettySize=auto;html=1;entryX=0;entryY=0.5;entryDx=0;entryDy=0;strokeWidth=1;exitX=1;exitY=0.5;exitDx=0;exitDy=0;" edge="1" parent="1" target="d2iDbv8LphyQNJaGy7Gl-26" source="d2iDbv8LphyQNJaGy7Gl-18">
          <mxGeometry x="570" y="76" as="geometry">
            <mxPoint x="633.3913043478261" y="195.16565900846433" as="sourcePoint" />
          </mxGeometry>
        </mxCell>
        <mxCell id="d2iDbv8LphyQNJaGy7Gl-66" style="edgeStyle=none;rounded=0;orthogonalLoop=1;jettySize=auto;html=1;exitX=1;exitY=0.5;exitDx=0;exitDy=0;entryX=0;entryY=0.5;entryDx=0;entryDy=0;strokeWidth=1;" edge="1" parent="1" source="d2iDbv8LphyQNJaGy7Gl-18" target="d2iDbv8LphyQNJaGy7Gl-64">
          <mxGeometry x="570" y="76" as="geometry" />
        </mxCell>
        <mxCell id="d2iDbv8LphyQNJaGy7Gl-18" value="" style="ellipse;whiteSpace=wrap;html=1;aspect=fixed;strokeWidth=1;" vertex="1" parent="1">
          <mxGeometry x="570" y="144.34814993954052" width="60.65498097436218" height="60.65498097436218" as="geometry" />
        </mxCell>
        <mxCell id="d2iDbv8LphyQNJaGy7Gl-68" style="edgeStyle=none;rounded=0;orthogonalLoop=1;jettySize=auto;html=1;exitX=1;exitY=0.5;exitDx=0;exitDy=0;entryX=0;entryY=0.5;entryDx=0;entryDy=0;strokeWidth=1;" edge="1" parent="1" source="d2iDbv8LphyQNJaGy7Gl-19" target="d2iDbv8LphyQNJaGy7Gl-27">
          <mxGeometry x="570" y="76" as="geometry" />
        </mxCell>
        <mxCell id="d2iDbv8LphyQNJaGy7Gl-19" value="" style="ellipse;whiteSpace=wrap;html=1;aspect=fixed;strokeWidth=1;" vertex="1" parent="1">
          <mxGeometry x="570" y="271.70629987908103" width="60.65498097436218" height="60.65498097436218" as="geometry" />
        </mxCell>
        <mxCell id="d2iDbv8LphyQNJaGy7Gl-21" style="edgeStyle=none;rounded=0;orthogonalLoop=1;jettySize=auto;html=1;exitX=1;exitY=0.5;exitDx=0;exitDy=0;strokeWidth=1;entryX=0.043;entryY=0.396;entryDx=0;entryDy=0;entryPerimeter=0;" edge="1" parent="1" source="d2iDbv8LphyQNJaGy7Gl-22" target="d2iDbv8LphyQNJaGy7Gl-24">
          <mxGeometry x="570" y="76" as="geometry">
            <mxPoint x="680" y="110" as="targetPoint" />
          </mxGeometry>
        </mxCell>
        <mxCell id="d2iDbv8LphyQNJaGy7Gl-60" style="edgeStyle=none;rounded=0;orthogonalLoop=1;jettySize=auto;html=1;exitX=1;exitY=0.5;exitDx=0;exitDy=0;entryX=0;entryY=0.5;entryDx=0;entryDy=0;strokeWidth=1;" edge="1" parent="1" source="d2iDbv8LphyQNJaGy7Gl-22" target="d2iDbv8LphyQNJaGy7Gl-27">
          <mxGeometry x="570" y="76" as="geometry" />
        </mxCell>
        <mxCell id="d2iDbv8LphyQNJaGy7Gl-69" style="edgeStyle=none;rounded=0;orthogonalLoop=1;jettySize=auto;html=1;exitX=1;exitY=0.5;exitDx=0;exitDy=0;entryX=0;entryY=0.5;entryDx=0;entryDy=0;strokeWidth=1;" edge="1" parent="1" source="d2iDbv8LphyQNJaGy7Gl-22" target="d2iDbv8LphyQNJaGy7Gl-64">
          <mxGeometry x="570" y="76" as="geometry" />
        </mxCell>
        <mxCell id="d2iDbv8LphyQNJaGy7Gl-22" value="" style="ellipse;whiteSpace=wrap;html=1;aspect=fixed;strokeWidth=1;" vertex="1" parent="1">
          <mxGeometry x="570" y="340.94498186215236" width="60.65498097436218" height="60.65498097436218" as="geometry" />
        </mxCell>
        <mxCell id="d2iDbv8LphyQNJaGy7Gl-24" value="" style="ellipse;whiteSpace=wrap;html=1;aspect=fixed;strokeWidth=1;" vertex="1" parent="1">
          <mxGeometry x="687.3913043478261" y="75.99626360338573" width="60.65498097436218" height="60.65498097436218" as="geometry" />
        </mxCell>
        <mxCell id="d2iDbv8LphyQNJaGy7Gl-14" style="edgeStyle=none;rounded=0;orthogonalLoop=1;jettySize=auto;html=1;exitX=1;exitY=0.5;exitDx=0;exitDy=0;entryX=0;entryY=0.5;entryDx=0;entryDy=0;strokeWidth=1;" edge="1" parent="1" source="d2iDbv8LphyQNJaGy7Gl-15" target="d2iDbv8LphyQNJaGy7Gl-24">
          <mxGeometry x="570" y="76" as="geometry" />
        </mxCell>
        <mxCell id="d2iDbv8LphyQNJaGy7Gl-16" style="edgeStyle=none;rounded=0;orthogonalLoop=1;jettySize=auto;html=1;entryX=0;entryY=0.5;entryDx=0;entryDy=0;strokeWidth=1;exitX=1;exitY=0.5;exitDx=0;exitDy=0;" edge="1" parent="1" source="d2iDbv8LphyQNJaGy7Gl-18" target="d2iDbv8LphyQNJaGy7Gl-24">
          <mxGeometry x="570" y="76" as="geometry">
            <mxPoint x="640" y="190" as="sourcePoint" />
          </mxGeometry>
        </mxCell>
        <mxCell id="d2iDbv8LphyQNJaGy7Gl-26" value="" style="ellipse;whiteSpace=wrap;html=1;aspect=fixed;strokeWidth=1;" vertex="1" parent="1">
          <mxGeometry x="687.3913043478261" y="271.7044135429262" width="60.65498097436218" height="60.65498097436218" as="geometry" />
        </mxCell>
        <mxCell id="d2iDbv8LphyQNJaGy7Gl-20" style="edgeStyle=none;rounded=0;orthogonalLoop=1;jettySize=auto;html=1;exitX=1;exitY=0.5;exitDx=0;exitDy=0;entryX=0;entryY=0.5;entryDx=0;entryDy=0;strokeWidth=1;" edge="1" parent="1" source="d2iDbv8LphyQNJaGy7Gl-22" target="d2iDbv8LphyQNJaGy7Gl-26">
          <mxGeometry x="570" y="76" as="geometry" />
        </mxCell>
        <mxCell id="d2iDbv8LphyQNJaGy7Gl-27" value="" style="ellipse;whiteSpace=wrap;html=1;aspect=fixed;strokeWidth=1;" vertex="1" parent="1">
          <mxGeometry x="687.3913043478261" y="340.94256348246677" width="60.65498097436218" height="60.65498097436218" as="geometry" />
        </mxCell>
        <mxCell id="d2iDbv8LphyQNJaGy7Gl-93" style="edgeStyle=none;rounded=0;orthogonalLoop=1;jettySize=auto;html=1;exitX=1;exitY=0.5;exitDx=0;exitDy=0;strokeWidth=1;" edge="1" parent="1" source="d2iDbv8LphyQNJaGy7Gl-28">
          <mxGeometry relative="1" as="geometry">
            <mxPoint x="930" y="185" as="targetPoint" />
          </mxGeometry>
        </mxCell>
        <mxCell id="d2iDbv8LphyQNJaGy7Gl-28" value="" style="ellipse;whiteSpace=wrap;html=1;aspect=fixed;strokeWidth=1;" vertex="1" parent="1">
          <mxGeometry x="794.6765217391305" y="155.000338573156" width="60.65498097436218" height="60.65498097436218" as="geometry" />
        </mxCell>
        <mxCell id="d2iDbv8LphyQNJaGy7Gl-25" style="edgeStyle=none;rounded=0;orthogonalLoop=1;jettySize=auto;html=1;exitX=1;exitY=0.5;exitDx=0;exitDy=0;entryX=0;entryY=0.5;entryDx=0;entryDy=0;strokeWidth=1;" edge="1" parent="1" source="d2iDbv8LphyQNJaGy7Gl-26" target="d2iDbv8LphyQNJaGy7Gl-28">
          <mxGeometry x="570" y="76" as="geometry" />
        </mxCell>
        <mxCell id="d2iDbv8LphyQNJaGy7Gl-94" style="edgeStyle=none;rounded=0;orthogonalLoop=1;jettySize=auto;html=1;exitX=1;exitY=0.5;exitDx=0;exitDy=0;strokeWidth=1;" edge="1" parent="1" source="d2iDbv8LphyQNJaGy7Gl-29">
          <mxGeometry relative="1" as="geometry">
            <mxPoint x="930" y="290" as="targetPoint" />
          </mxGeometry>
        </mxCell>
        <mxCell id="d2iDbv8LphyQNJaGy7Gl-29" value="" style="ellipse;whiteSpace=wrap;html=1;aspect=fixed;strokeWidth=1;" vertex="1" parent="1">
          <mxGeometry x="794.6765217391305" y="259.3484885126965" width="60.65498097436218" height="60.65498097436218" as="geometry" />
        </mxCell>
        <mxCell id="d2iDbv8LphyQNJaGy7Gl-23" style="edgeStyle=none;rounded=0;orthogonalLoop=1;jettySize=auto;html=1;exitX=1;exitY=0.5;exitDx=0;exitDy=0;strokeWidth=1;" edge="1" parent="1" source="d2iDbv8LphyQNJaGy7Gl-24">
          <mxGeometry x="570" y="76" as="geometry">
            <mxPoint x="797" y="300" as="targetPoint" />
          </mxGeometry>
        </mxCell>
        <mxCell id="d2iDbv8LphyQNJaGy7Gl-30" style="edgeStyle=none;rounded=0;orthogonalLoop=1;jettySize=auto;html=1;strokeWidth=1;entryX=0;entryY=0.5;entryDx=0;entryDy=0;" edge="1" parent="1" target="d2iDbv8LphyQNJaGy7Gl-26">
          <mxGeometry x="570" y="76" as="geometry">
            <mxPoint x="632.6086956521739" y="107.77750906892382" as="sourcePoint" />
            <mxPoint x="687.3913043478261" y="250.77629987908102" as="targetPoint" />
          </mxGeometry>
        </mxCell>
        <mxCell id="d2iDbv8LphyQNJaGy7Gl-31" style="edgeStyle=none;rounded=0;orthogonalLoop=1;jettySize=auto;html=1;exitX=1;exitY=0.5;exitDx=0;exitDy=0;strokeWidth=1;" edge="1" parent="1" source="d2iDbv8LphyQNJaGy7Gl-27">
          <mxGeometry x="570" y="76" as="geometry">
            <mxPoint x="796.9565217391305" y="290.4981862152358" as="targetPoint" />
          </mxGeometry>
        </mxCell>
        <mxCell id="d2iDbv8LphyQNJaGy7Gl-32" style="edgeStyle=none;rounded=0;orthogonalLoop=1;jettySize=auto;html=1;entryX=0;entryY=0.5;entryDx=0;entryDy=0;strokeWidth=1;exitX=1;exitY=0.5;exitDx=0;exitDy=0;" edge="1" parent="1" target="d2iDbv8LphyQNJaGy7Gl-28" source="d2iDbv8LphyQNJaGy7Gl-27">
          <mxGeometry x="570" y="76" as="geometry">
            <mxPoint x="796.9565217391305" y="306.3869407496977" as="targetPoint" />
            <mxPoint x="750" y="330.22007255139056" as="sourcePoint" />
          </mxGeometry>
        </mxCell>
        <mxCell id="d2iDbv8LphyQNJaGy7Gl-33" style="edgeStyle=none;rounded=0;orthogonalLoop=1;jettySize=auto;html=1;exitX=1;exitY=0.5;exitDx=0;exitDy=0;strokeWidth=1;" edge="1" parent="1" source="d2iDbv8LphyQNJaGy7Gl-26">
          <mxGeometry x="570" y="76" as="geometry">
            <mxPoint x="796.9565217391305" y="290.4981862152358" as="targetPoint" />
          </mxGeometry>
        </mxCell>
        <mxCell id="d2iDbv8LphyQNJaGy7Gl-34" style="edgeStyle=none;rounded=0;orthogonalLoop=1;jettySize=auto;html=1;exitX=1;exitY=0.5;exitDx=0;exitDy=0;strokeWidth=1;" edge="1" parent="1" source="d2iDbv8LphyQNJaGy7Gl-24">
          <mxGeometry x="570" y="76" as="geometry">
            <mxPoint x="796.9565217391305" y="203.11003627569528" as="targetPoint" />
          </mxGeometry>
        </mxCell>
        <mxCell id="d2iDbv8LphyQNJaGy7Gl-35" style="edgeStyle=none;rounded=0;orthogonalLoop=1;jettySize=auto;html=1;exitX=1;exitY=0.5;exitDx=0;exitDy=0;strokeWidth=1;entryX=0;entryY=0.5;entryDx=0;entryDy=0;" edge="1" parent="1" source="d2iDbv8LphyQNJaGy7Gl-19" target="d2iDbv8LphyQNJaGy7Gl-26">
          <mxGeometry x="570" y="76" as="geometry">
            <mxPoint x="687.3913043478261" y="242.83192261185005" as="targetPoint" />
          </mxGeometry>
        </mxCell>
        <mxCell id="d2iDbv8LphyQNJaGy7Gl-36" style="edgeStyle=none;rounded=0;orthogonalLoop=1;jettySize=auto;html=1;exitX=1;exitY=0.5;exitDx=0;exitDy=0;strokeWidth=1;" edge="1" parent="1" source="d2iDbv8LphyQNJaGy7Gl-19">
          <mxGeometry x="570" y="76" as="geometry">
            <mxPoint x="687" y="110" as="targetPoint" />
          </mxGeometry>
        </mxCell>
        <mxCell id="d2iDbv8LphyQNJaGy7Gl-61" style="edgeStyle=none;rounded=0;orthogonalLoop=1;jettySize=auto;html=1;exitX=1;exitY=0.5;exitDx=0;exitDy=0;strokeWidth=1;entryX=0;entryY=0.5;entryDx=0;entryDy=0;" edge="1" parent="1" source="d2iDbv8LphyQNJaGy7Gl-18" target="d2iDbv8LphyQNJaGy7Gl-27">
          <mxGeometry x="570" y="76" as="geometry">
            <mxPoint x="680" y="370" as="targetPoint" />
          </mxGeometry>
        </mxCell>
        <mxCell id="d2iDbv8LphyQNJaGy7Gl-63" style="edgeStyle=none;rounded=0;orthogonalLoop=1;jettySize=auto;html=1;exitX=1;exitY=0.5;exitDx=0;exitDy=0;strokeWidth=1;entryX=0.043;entryY=0.644;entryDx=0;entryDy=0;entryPerimeter=0;" edge="1" parent="1" source="d2iDbv8LphyQNJaGy7Gl-15" target="d2iDbv8LphyQNJaGy7Gl-27">
          <mxGeometry x="570" y="76" as="geometry">
            <mxPoint x="690" y="370" as="targetPoint" />
          </mxGeometry>
        </mxCell>
        <mxCell id="d2iDbv8LphyQNJaGy7Gl-70" style="edgeStyle=none;rounded=0;orthogonalLoop=1;jettySize=auto;html=1;exitX=1;exitY=0.5;exitDx=0;exitDy=0;entryX=0.044;entryY=0.703;entryDx=0;entryDy=0;entryPerimeter=0;strokeWidth=1;" edge="1" parent="1" source="d2iDbv8LphyQNJaGy7Gl-64" target="d2iDbv8LphyQNJaGy7Gl-29">
          <mxGeometry x="570" y="76" as="geometry" />
        </mxCell>
        <mxCell id="d2iDbv8LphyQNJaGy7Gl-71" style="edgeStyle=none;rounded=0;orthogonalLoop=1;jettySize=auto;html=1;exitX=1;exitY=0.5;exitDx=0;exitDy=0;strokeWidth=1;" edge="1" parent="1" source="d2iDbv8LphyQNJaGy7Gl-64">
          <mxGeometry x="570" y="76" as="geometry">
            <mxPoint x="796" y="190" as="targetPoint" />
          </mxGeometry>
        </mxCell>
        <mxCell id="d2iDbv8LphyQNJaGy7Gl-64" value="" style="ellipse;whiteSpace=wrap;html=1;aspect=fixed;strokeWidth=1;" vertex="1" parent="1">
          <mxGeometry x="687.3913043478261" y="144.34626360338572" width="60.65498097436218" height="60.65498097436218" as="geometry" />
        </mxCell>
        <mxCell id="d2iDbv8LphyQNJaGy7Gl-75" value="" style="group;rotation=45;" vertex="1" connectable="0" parent="1">
          <mxGeometry x="585" y="225" width="26" height="26" as="geometry" />
        </mxCell>
        <mxCell id="d2iDbv8LphyQNJaGy7Gl-72" value="" style="ellipse;whiteSpace=wrap;html=1;aspect=fixed;strokeWidth=1;labelBackgroundColor=#000000;fillColor=#000000;rotation=45;" vertex="1" parent="d2iDbv8LphyQNJaGy7Gl-75">
          <mxGeometry x="10" y="-4" width="6" height="6" as="geometry" />
        </mxCell>
        <mxCell id="d2iDbv8LphyQNJaGy7Gl-73" value="" style="ellipse;whiteSpace=wrap;html=1;aspect=fixed;strokeWidth=1;labelBackgroundColor=#000000;fillColor=#000000;rotation=45;" vertex="1" parent="d2iDbv8LphyQNJaGy7Gl-75">
          <mxGeometry x="10" y="10" width="6" height="6" as="geometry" />
        </mxCell>
        <mxCell id="d2iDbv8LphyQNJaGy7Gl-74" value="" style="ellipse;whiteSpace=wrap;html=1;aspect=fixed;strokeWidth=1;labelBackgroundColor=#000000;fillColor=#000000;direction=south;rotation=45;" vertex="1" parent="d2iDbv8LphyQNJaGy7Gl-75">
          <mxGeometry x="10" y="24" width="6" height="6" as="geometry" />
        </mxCell>
        <mxCell id="d2iDbv8LphyQNJaGy7Gl-81" value="" style="group;rotation=45;" vertex="1" connectable="0" parent="1">
          <mxGeometry x="702" y="226" width="26" height="26" as="geometry" />
        </mxCell>
        <mxCell id="d2iDbv8LphyQNJaGy7Gl-82" value="" style="ellipse;whiteSpace=wrap;html=1;aspect=fixed;strokeWidth=1;labelBackgroundColor=#000000;fillColor=#000000;rotation=45;" vertex="1" parent="d2iDbv8LphyQNJaGy7Gl-81">
          <mxGeometry x="10" y="-4" width="6" height="6" as="geometry" />
        </mxCell>
        <mxCell id="d2iDbv8LphyQNJaGy7Gl-83" value="" style="ellipse;whiteSpace=wrap;html=1;aspect=fixed;strokeWidth=1;labelBackgroundColor=#000000;fillColor=#000000;rotation=45;" vertex="1" parent="d2iDbv8LphyQNJaGy7Gl-81">
          <mxGeometry x="10" y="10" width="6" height="6" as="geometry" />
        </mxCell>
        <mxCell id="d2iDbv8LphyQNJaGy7Gl-84" value="" style="ellipse;whiteSpace=wrap;html=1;aspect=fixed;strokeWidth=1;labelBackgroundColor=#000000;fillColor=#000000;direction=south;rotation=45;" vertex="1" parent="d2iDbv8LphyQNJaGy7Gl-81">
          <mxGeometry x="10" y="24" width="6" height="6" as="geometry" />
        </mxCell>
        <mxCell id="d2iDbv8LphyQNJaGy7Gl-85" value="卷积" style="text;html=1;align=center;verticalAlign=middle;resizable=0;points=[];autosize=1;" vertex="1" parent="1">
          <mxGeometry x="390" y="430" width="40" height="20" as="geometry" />
        </mxCell>
        <mxCell id="d2iDbv8LphyQNJaGy7Gl-87" value="全连接" style="text;html=1;align=center;verticalAlign=middle;resizable=0;points=[];autosize=1;" vertex="1" parent="1">
          <mxGeometry x="635" y="430" width="50" height="20" as="geometry" />
        </mxCell>
        <mxCell id="d2iDbv8LphyQNJaGy7Gl-88" value="输出" style="text;html=1;align=center;verticalAlign=middle;resizable=0;points=[];autosize=1;" vertex="1" parent="1">
          <mxGeometry x="860" y="430" width="40" height="20" as="geometry" />
        </mxCell>
        <mxCell id="d2iDbv8LphyQNJaGy7Gl-89" value="输入" style="text;html=1;align=center;verticalAlign=middle;resizable=0;points=[];autosize=1;" vertex="1" parent="1">
          <mxGeometry x="140" y="430" width="40" height="20" as="geometry" />
        </mxCell>
        <mxCell id="d2iDbv8LphyQNJaGy7Gl-90" value="" style="ellipse;whiteSpace=wrap;html=1;aspect=fixed;strokeWidth=1;labelBackgroundColor=#000000;fillColor=#000000;rotation=45;" vertex="1" parent="1">
          <mxGeometry x="820" y="228" width="6" height="6" as="geometry" />
        </mxCell>
        <mxCell id="d2iDbv8LphyQNJaGy7Gl-91" value="" style="ellipse;whiteSpace=wrap;html=1;aspect=fixed;strokeWidth=1;labelBackgroundColor=#000000;fillColor=#000000;rotation=45;" vertex="1" parent="1">
          <mxGeometry x="821" y="244" width="6" height="6" as="geometry" />
        </mxCell>
      </root>
    </mxGraphModel>
  </diagram>
</mxfile>
